<?xml version="1.0" encoding="UTF-8" standalone="no"?>
<!-- Created with Inkscape (http://www.inkscape.org/) -->

<svg
   xmlns:dc="http://purl.org/dc/elements/1.1/"
   xmlns:cc="http://creativecommons.org/ns#"
   xmlns:rdf="http://www.w3.org/1999/02/22-rdf-syntax-ns#"
   xmlns:svg="http://www.w3.org/2000/svg"
   xmlns="http://www.w3.org/2000/svg"
   xmlns:sodipodi="http://sodipodi.sourceforge.net/DTD/sodipodi-0.dtd"
   xmlns:inkscape="http://www.inkscape.org/namespaces/inkscape"
   width="135mm"
   height="25mm"
   viewBox="0 0 135 25"
   version="1.1"
   id="svg8"
   inkscape:version="0.92.0 r15299"
   sodipodi:docname="logotype.svg">
  <defs
     id="defs2">
    <inkscape:perspective
       sodipodi:type="inkscape:persp3d"
       inkscape:vp_x="0 : 148.49999 : 1"
       inkscape:vp_y="0 : 999.99997 : 0"
       inkscape:vp_z="210 : 148.49999 : 1"
       inkscape:persp3d-origin="104.99999 : 98.999997 : 1"
       id="perspective4875" />
  </defs>
  <sodipodi:namedview
     id="base"
     pagecolor="#ffffff"
     bordercolor="#666666"
     borderopacity="1.0"
     inkscape:pageopacity="0.0"
     inkscape:pageshadow="2"
     inkscape:zoom="2.1103612"
     inkscape:cx="248.75426"
     inkscape:cy="47.771503"
     inkscape:document-units="mm"
     inkscape:current-layer="layer1"
     showgrid="true"
     inkscape:window-width="1918"
     inkscape:window-height="1181"
     inkscape:window-x="0"
     inkscape:window-y="17"
     inkscape:window-maximized="0"
     inkscape:measure-start="0,0"
     inkscape:measure-end="0,0"
     showguides="true"
     inkscape:guide-bbox="true"
     inkscape:snap-global="true"
     inkscape:object-nodes="false"
     inkscape:snap-bbox="true"
     inkscape:snap-nodes="true"
     inkscape:bbox-nodes="true"
     inkscape:snap-intersection-paths="false"
     fit-margin-left="0"
     fit-margin-right="0"
     fit-margin-bottom="0"
     fit-margin-top="0" />
  <metadata
     id="metadata5">
    <rdf:RDF>
      <cc:Work
         rdf:about="">
        <dc:format>image/svg+xml</dc:format>
        <dc:type
           rdf:resource="http://purl.org/dc/dcmitype/StillImage" />
        <dc:title></dc:title>
      </cc:Work>
    </rdf:RDF>
  </metadata>
  <g
     inkscape:label="scrap"
     inkscape:groupmode="layer"
     id="layer1"
     style="display:inline"
     transform="translate(-35.637623,-19.999445)">
    <g
       id="g4565"
       transform="matrix(0.99007127,0,0,0.97188596,0.35383647,1.2651165)">
      <rect
         y="19.276262"
         x="35.637623"
         height="25.723183"
         width="136.35382"
         id="rect4931-5-8-1-0-3-0-5-3"
         style="display:inline;fill:#0a0f14;fill-opacity:1;stroke:none;stroke-width:2.27599001;stroke-linejoin:miter;stroke-miterlimit:4;stroke-dasharray:none;stroke-opacity:1;paint-order:markers fill stroke" />
      <path
         inkscape:connector-curvature="0"
         id="path6989-1-8"
         d="m 42.053642,25.701942 v 12.860956 h 2.792119 v -4.90976 h 1.637214 l 2.101941,4.90976 h 3.142544 l -2.660234,-5.53902 c 0.826613,-0.24787 1.473602,-0.67665 1.940539,-1.28679 0.466943,-0.61012 0.700229,-1.35056 0.700229,-2.22126 0,-1.23297 -0.413699,-2.177066 -1.240316,-2.831682 -0.82661,-0.65463 -2.072677,-0.982204 -3.738525,-0.982204 z m 11.267073,0 v 2.259568 h 6.438329 l -6.441467,8.608718 v 1.99267 h 11.564121 9.344116 v -2.24513 h -6.75924 v -3.1796 h 6.764896 v -2.17353 h -6.761755 v -3.008781 h 8.667125 v -0.01381 h 3.548868 v 10.625251 h 2.812214 V 27.962766 h 5.544049 v -0.02072 h 3.862246 v 10.625252 h 2.812214 V 27.962772 h 5.550949 v 10.604526 h 11.23694 v -2.24449 h -8.34182 v -3.1796 h 6.76489 v -2.17354 h -6.76175 v -3.009407 h 6.77681 V 25.706965 H 100.54434 88.041971 76.13684 v -0.005 H 64.570834 v 10.617113 h -8.031582 l 6.406928,-8.66274 v -1.954356 z m 58.185485,0.005 v 12.860326 h 2.79212 v -4.90976 h 1.63722 l 2.10194,4.90976 h 3.14254 l -2.66024,-5.53839 c 0.82661,-0.24787 1.4736,-0.67728 1.94054,-1.28742 0.46694,-0.61012 0.70023,-1.35056 0.70023,-2.22126 0,-1.23297 -0.41371,-2.176437 -1.24032,-2.831052 -0.82661,-0.65463 -2.07268,-0.982204 -3.73852,-0.982204 z m 22.52284,0 v 12.860326 h 9.66189 v -2.2445 h -6.76677 v -3.17959 h 6.76489 v -2.17354 h -6.76175 v -3.009405 h 6.77682 v -2.253291 z m 11.25389,0 v 12.860326 h 2.79211 v -4.90976 h 1.63723 l 2.10194,4.90976 h 3.14255 l -2.66025,-5.53839 c 0.82663,-0.24787 1.47299,-0.67728 1.93992,-1.28742 0.46694,-0.61012 0.70086,-1.35056 0.70086,-2.22126 0,-1.23297 -0.4137,-2.176437 -1.24031,-2.831052 -0.82662,-0.65463 -2.07269,-0.982204 -3.73853,-0.982204 z m 16.38973,0 c -3.42403,0 -5.13585,2.125357 -5.13585,6.375526 0,2.06032 0.45071,3.65792 1.35273,4.79295 0.90205,1.12886 2.15393,1.6931 3.75549,1.6931 1.53405,0 3.04686,-0.63199 4.53797,-1.89658 v -5.16347 h -5.00771 v 2.01716 h 2.52207 v 2.17479 c -0.25773,0.20974 -0.56149,0.37591 -0.91124,0.49927 -0.34365,0.12338 -0.67772,0.18526 -1.00294,0.18526 -0.84065,0 -1.4666,-0.37331 -1.87773,-1.11974 -0.41115,-0.74639 -0.61671,-1.80714 -0.61671,-3.18274 0,-1.48664 0.19307,-2.56301 0.57966,-3.22921 0.39273,-0.666217 1.00351,-0.999788 1.83189,-0.999788 0.80999,0 1.3773,0.607888 1.70253,1.823108 l 2.52209,-0.4999 c -0.33137,-1.165867 -0.84662,-2.035686 -1.54617,-2.609368 -0.69954,-0.573677 -1.60158,-0.860368 -2.70608,-0.860368 z m -38.91258,0.0012 v 12.860336 h 5.36005 c 1.34462,0 2.39753,-0.3239 3.15887,-0.97217 0.76135,-0.64825 1.14234,-1.54756 1.14234,-2.69791 0,-0.87706 -0.27638,-1.58253 -0.82896,-2.11639 -0.54646,-0.53386 -1.34468,-0.85838 -2.3946,-0.97278 0.84116,-0.18431 1.46435,-0.52415 1.86958,-1.01989 0.40523,-0.50209 0.60791,-1.1186 0.60791,-1.84948 0,-1.042294 -0.34743,-1.839761 -1.04124,-2.3927 -0.68765,-0.559279 -1.70043,-0.839016 -3.03892,-0.839016 z m 2.71677,2.088123 h 1.92483 c 1.02535,0 1.53799,0.507933 1.53799,1.524803 0,1.01052 -0.50669,1.516 -1.51978,1.516 h -1.94304 z m -80.631089,0.08913 h 1.590113 c 0.858166,0 1.482751,0.14294 1.873975,0.428933 0.39122,0.27965 0.587186,0.71826 0.587186,1.31567 0,1.22661 -0.79505,1.83944 -2.385172,1.83944 h -1.666102 z m 69.452559,0.0044 h 1.59011 c 0.85817,0 1.48274,0.143568 1.87397,0.429563 0.39122,0.27964 0.58719,0.71763 0.58719,1.31504 0,1.22661 -0.79504,1.84006 -2.38516,1.84006 h -1.66611 z m 33.77672,0 h 1.59013 c 0.85816,0 1.48274,0.143568 1.87397,0.429563 0.39121,0.27964 0.58656,0.71763 0.58656,1.31504 0,1.22661 -0.79506,1.84006 -2.38517,1.84006 h -1.66549 z m -22.59819,5.025313 h 2.30226 c 0.62013,0 1.09326,0.15274 1.41867,0.45782 0.32541,0.2987 0.48797,0.7275 0.48797,1.28679 0,1.21389 -0.61398,1.82121 -1.84195,1.82121 h -2.36695 z"
         style="font-style:normal;font-variant:normal;font-weight:bold;font-stretch:normal;font-size:29.33333397px;line-height:25px;font-family:'Liberation Mono';-inkscape-font-specification:'Liberation Mono Bold';letter-spacing:0px;word-spacing:0px;display:inline;fill:#deeaed;fill-opacity:1;stroke:none;stroke-width:0.6632098px;stroke-linecap:butt;stroke-linejoin:miter;stroke-opacity:1" />
    </g>
  </g>
</svg>
